<svg xmlns="http://www.w3.org/2000/svg" viewBox="0 0 48 48" width="48" height="48">
  <path fill="#4285F4" d="M44.5 20H24v8.5h11.7C33.4 33.9 29.1 37 24 37c-7 0-13-5.8-13-13s6-13 13-13c3.3 0 6.2 1.2 8.5 3.2l6.4-6.4C34.5 4.5 29.6 2 24 2 12.3 2 2.9 11.4 2.9 23S12.3 44 24 44c11.2 0 21-8.5 21-21 0-1.6-.2-2.7-.5-3.9z"/>
  <path fill="#34A853" d="M6.3 14.6l6.8 5C15.2 16.1 19.3 13 24 13c3.3 0 6.3 1.3 8.5 3.3l6.4-6.4C34.5 4.5 29.6 2 24 2 14.4 2 6.7 7.7 6.3 14.6z"/>
  <path fill="#FBBC05" d="M24 44c5.2 0 10-1.9 13.7-5.1l-6.6-5.5C29.2 35.5 26.7 36 24 36c-5.1 0-9.4-3.2-11-7.7l-6.7 5.1C9.4 40.5 16.1 44 24 44z"/>
  <path fill="#EA4335" d="M44.5 20H24v8.5h11.7c-1.2 3.2-4 5.8-7.7 6.9l6.6 5.1C38.9 36.4 44.5 30.5 44.5 20z"/>
</svg>